<?xml version="1.0"?>
<svg xmlns="http://www.w3.org/2000/svg" viewBox="0 0 64 64" width="512" height="512"><g id="house-lock-key-protect-coronavirus-covid-covid19"><path d="M61.51,19.14l-29-17a.984.984,0,0,0-1.02,0l-29,17A1.012,1.012,0,0,0,2,20v4a1,1,0,0,0,1,1H6V61a1,1,0,0,0,1,1H57a1,1,0,0,0,1-1V25h3a1,1,0,0,0,1-1V20A1.012,1.012,0,0,0,61.51,19.14ZM60,23H57a1,1,0,0,0-1,1V60H8V24a1,1,0,0,0-1-1H4V20.57L32,4.16,60,20.57Z"/><path d="M43,31H42V26a10,10,0,0,0-20,0v5H21a1,1,0,0,0-1,1V52a3.009,3.009,0,0,0,3,3H41a3.009,3.009,0,0,0,3-3V32A1,1,0,0,0,43,31ZM24,26a8,8,0,0,1,16,0v5H39V26a7,7,0,0,0-14,0v5H24Zm13,0v5H27V26a5,5,0,0,1,10,0Zm5,26a1,1,0,0,1-1,1H23a1,1,0,0,1-1-1V33H42Z"/><path d="M32,37a2.993,2.993,0,0,0-1,5.816V50h2V42.816A2.993,2.993,0,0,0,32,37Zm0,4a1,1,0,1,1,1-1A1,1,0,0,1,32,41Z"/></g></svg>
