<?xml version="1.0" encoding="iso-8859-1"?>
<!-- Generator: Adobe Illustrator 19.0.0, SVG Export Plug-In . SVG Version: 6.00 Build 0)  -->
<svg version="1.1" id="Capa_1" xmlns="http://www.w3.org/2000/svg" xmlns:xlink="http://www.w3.org/1999/xlink" x="0px" y="0px"
	 viewBox="0 0 512 512" style="enable-background:new 0 0 512 512;" xml:space="preserve">
<g>
	<g>
		<path d="M427.07,213.05c-1.86-1.86-4.44-2.93-7.07-2.93s-5.21,1.07-7.07,2.93s-2.93,4.44-2.93,7.07s1.07,5.21,2.93,7.07
			c1.86,1.86,4.44,2.93,7.07,2.93s5.21-1.07,7.07-2.93s2.93-4.44,2.93-7.07S428.93,214.91,427.07,213.05z"/>
	</g>
</g>
<g>
	<g>
		<path d="M420,183c5.523,0,10-4.477,10-10V38c0-20.953-17.047-38-38-38H120C99.047,0,82,17.047,82,38v436c0,20.953,17.047,38,38,38
			h272c20.953,0,38-17.047,38-38V268c0-5.523-4.477-10-10-10s-10,4.477-10,10v206c0,9.925-8.075,18-18,18H120
			c-9.925,0-18-8.075-18-18V38c0-9.925,8.075-18,18-18h272c9.925,0,18,8.075,18,18v135C410,178.523,414.477,183,420,183z"/>
	</g>
</g>
<g>
	<g>
		<path d="M378,64h-71c-5.523,0-10,4.477-10,10s4.477,10,10,10h61v320.022H144V84h59c5.523,0,10-4.477,10-10s-4.477-10-10-10h-69
			c-5.523,0-10,4.477-10,10v340.022c0,5.523,4.477,10,10,10h244c5.523,0,10-4.477,10-10V74C388,68.477,383.523,64,378,64z"/>
	</g>
</g>
<g>
	<g>
		<path d="M263.18,66.93c-1.86-1.86-4.44-2.93-7.07-2.93c-2.64,0-5.21,1.07-7.07,2.93s-2.93,4.44-2.93,7.07s1.07,5.21,2.93,7.07
			s4.43,2.93,7.07,2.93c2.63,0,5.21-1.07,7.07-2.93s2.93-4.44,2.93-7.07S265.04,68.79,263.18,66.93z"/>
	</g>
</g>
<g>
	<g>
		<path d="M256,432.022c-14.336,0-26,11.664-26,26s11.664,26,26,26s26-11.664,26-26S270.336,432.022,256,432.022z M256,464.022
			c-3.309,0-6-2.691-6-6c0-3.309,2.691-6,6-6s6,2.691,6,6C262,461.331,259.309,464.022,256,464.022z"/>
	</g>
</g>
<g>
	<g>
		<path d="M263.07,313.99c-1.86-1.86-4.44-2.93-7.07-2.93s-5.21,1.07-7.07,2.93s-2.93,4.44-2.93,7.07s1.07,5.21,2.93,7.07
			s4.44,2.93,7.07,2.93s5.21-1.07,7.07-2.93c1.86-1.86,2.93-4.44,2.93-7.07S264.93,315.85,263.07,313.99z"/>
	</g>
</g>
<g>
	<g>
		<path d="M351.555,221.309c-25.69-25.691-59.607-40.07-95.503-40.49c-35.987-0.44-69.681,13.227-94.883,38.429
			c-3.905,3.906-3.906,10.238,0,14.143c3.906,3.905,10.238,3.905,14.143,0c21.362-21.363,49.925-32.948,80.507-32.573
			c30.642,0.358,59.619,12.657,81.594,34.632c1.953,1.953,4.511,2.929,7.071,2.929c2.559,0,5.119-0.977,7.071-2.928
			C355.46,231.546,355.46,225.214,351.555,221.309z"/>
	</g>
</g>
<g>
	<g>
		<path d="M317.451,255.411c-33.823-33.822-88.293-34.384-121.423-1.254c-3.905,3.906-3.906,10.238,0,14.143
			c3.906,3.905,10.238,3.905,14.143,0c12.252-12.252,28.634-18.883,46.192-18.682c17.625,0.207,34.297,7.287,46.946,19.936
			c1.952,1.953,4.512,2.929,7.071,2.929c2.559,0,5.119-0.976,7.071-2.929C321.356,265.648,321.356,259.316,317.451,255.411z"/>
	</g>
</g>
<g>
	<g>
		<path d="M285.064,287.322c-15.591-15.592-40.739-15.81-56.06-0.49c-3.905,3.906-3.905,10.238,0,14.143
			c3.906,3.905,10.238,3.905,14.143,0c7.521-7.523,19.982-7.303,27.776,0.49c1.953,1.953,4.512,2.929,7.071,2.929
			s5.118-0.977,7.07-2.93C288.97,297.559,288.969,291.227,285.064,287.322z"/>
	</g>
</g>
<g>
</g>
<g>
</g>
<g>
</g>
<g>
</g>
<g>
</g>
<g>
</g>
<g>
</g>
<g>
</g>
<g>
</g>
<g>
</g>
<g>
</g>
<g>
</g>
<g>
</g>
<g>
</g>
<g>
</g>
</svg>
